<?xml version="1.0" encoding="UTF-8"?><svg id="_レイヤー_2" xmlns="http://www.w3.org/2000/svg" viewBox="0 0 270.52 207.39"><defs><style>.cls-1{opacity:.7;}.cls-2{fill:#e73651;}</style></defs><g id="_レイヤー_1-2"><g id="_レイヤー_6" class="cls-1"><path class="cls-2" d="m135.46,207.39c-36.75,0-66.56-3.76-88.62-11.17C17.15,186.24,1.43,169.61.12,146.78c-1.21-20.88,7.12-54.36,22.28-89.59C34.1,30.02,50.22,1.97,59.86.61c0,0,.07-.05.15-.09.41-.2,1.02-.51,1.87-.51.16,0,.33.01.51.04,2.27.33,7.01,1.02,33.4,40.44,1.29,1.92,3.45,3.07,5.79,3.07.55,0,1.09-.06,1.63-.19,10.61-2.51,21.48-3.78,32.32-3.78s21.56,1.25,32.11,3.73c.53.13,1.08.19,1.63.19,2.33,0,4.5-1.15,5.78-3.07C201.42,1.07,206.15.38,208.42.05c.24-.03.46-.05.67-.05.96,0,1.84.32,2.57.92,11.46,9.65,28.27,32.84,40.01,62.92,11.98,30.71,18.86,60.92,18.86,82.87s-14.9,39.71-40.87,48.73c-22.6,7.82-55.17,11.96-94.18,11.96ZM62.13,8.93c-1.97,0-3.85.84-5.16,2.32C33.47,37.82,6.79,105.54,9.17,146.68c2.07,35.7,41.04,51.61,126.37,51.61s126.35-16.35,126.35-51.45c0-43.59-26.26-109.69-48-135.35-1.33-1.58-3.28-2.48-5.34-2.48s-3.92.88-5.24,2.41c-6.14,7.14-15.23,19.81-27.02,37.66-.33.5-.82.9-1.39,1.11l-.85.31c-.33.12-.66.17-.99.17-.18,0-.37-.02-.55-.05-11.74-2.27-23.98-3.42-36.38-3.42s-25.24,1.17-37.76,3.48c-.2.03-.38.05-.56.05-.38,0-.75-.07-1.09-.2l-.62-.23c-.65-.24-1.22-.7-1.62-1.29-11.86-17.94-20.96-30.6-27.05-37.66-1.33-1.54-3.25-2.42-5.28-2.42Z"/></g></g></svg>